<?xml version="1.0" encoding="utf-8"?>
<!-- Generator: Adobe Illustrator 19.0.0, SVG Export Plug-In . SVG Version: 6.00 Build 0)  -->
<svg version="1.1" id="Layer_1" xmlns="http://www.w3.org/2000/svg" xmlns:xlink="http://www.w3.org/1999/xlink" x="0px" y="0px"
	 viewBox="0 0 246.6 288.5" style="enable-background:new 0 0 246.6 288.5;" xml:space="preserve">
<style type="text/css">
	.st0{fill:#545199;}
	.st1{fill:#312B72;}
	.st2{fill:#FDEF45;}
	.st3{fill:#F89D6E;}
	.st4{fill:#FCC111;}
	.st5{fill:#FFFFFF;}
	.st6{fill:#29BEEF;}
</style>
<g id="XMLID_489_">
	<path id="XMLID_682_" class="st0" d="M127.2,61.5c-46.9,0-84.8,38-84.8,84.8c0,11.2,2.2,22,6.2,31.8c0.9-0.6,1.7-1.2,2.6-1.8
		c4-2.6,8.1-5.4,12.3-7.9c33.3-20.7,68.7-37.5,68.7-37.5l2.6,5.5c0,0-8.7,4.2-21.7,10.9c-12.9,6.7-30,16-46.5,26.3
		c-4.1,2.5-8.2,5.2-12.2,7.8c-1.2,0.8-2.3,1.6-3.4,2.3c1.5,3,3.2,5.9,5,8.7c2.6-1.8,5.2-3.6,7.8-5.3c18.9-12.4,38.6-23.2,53.5-31.1
		c14.9-7.9,25.1-12.7,25.1-12.7l2.6,5.5c0,0-10.1,4.8-24.9,12.6c-14.8,7.8-34.4,18.6-53,30.8c-2.6,1.7-5.1,3.4-7.7,5.2
		c1.9,2.6,4.1,4.9,6.3,7.3c3.2-2.3,6.4-4.5,9.7-6.7c18.9-12.4,38.6-23.2,53.5-31.1c14.9-7.9,25.1-12.7,25.1-12.7l2.6,5.5
		c0,0-10.1,4.8-24.9,12.6c-14.8,7.8-34.4,18.6-53,30.8c-2.7,1.8-5.3,3.6-7.9,5.4l1.7,2.7c14.7,12.4,33.7,19.8,54.5,19.8
		c46.9,0,84.8-38,84.8-84.8C212,99.4,174.1,61.5,127.2,61.5z"/>
	<path id="XMLID_623_" class="st1" d="M127.2,58.4c-48.5,0-87.9,39.4-87.9,87.9c0,11.9,2.4,23.2,6.7,33.5c1.7-1.2,3.4-2.3,5.1-3.5
		c0,0,0,0,0.1,0c-3.7-9.3-5.7-19.4-5.7-30c0-45.1,36.7-81.8,81.8-81.8s81.8,36.7,81.8,81.8s-36.7,81.8-81.8,81.8
		c-2.4,0-4.8-0.1-7.1-0.3c-0.7-0.1-1.3-0.1-2-0.2c-1.8-0.2-3.5-0.4-5.2-0.7c-0.6-0.1-1.2-0.2-1.8-0.3c-2-0.4-3.9-0.9-5.8-1.4
		c-0.3-0.1-0.5-0.1-0.8-0.2c-11.8-3.5-22.6-9.5-31.6-17.6c-1.7,1.2-3.4,2.4-5.1,3.6c2.2,2,4.5,3.9,6.9,5.7c-1,0.6-2.3,1.4-3.9,2.3
		c-4.2,2.3-10.3,5.7-17.8,8.3c-1.9,0.6-3.9,1.1-5.8,1.4c-1,0.1-1.9,0.2-2.7,0.1c-0.8-0.1-1.3-0.4-1.2-0.4c0-0.1-0.1-0.3,0-0.9
		c0.1-0.7,0.6-1.6,1.1-2.6c1.1-1.9,2.6-3.7,4.3-5.5c3.4-3.6,7.5-6.9,11.9-10.1c4.4-3.3,9-6.4,13.6-9.4c18.6-12.2,38.2-23,53-30.8
		c14.8-7.8,24.9-12.6,24.9-12.6l-2.6-5.5c0,0-10.2,4.8-25.1,12.7c-14.9,7.9-34.6,18.7-53.5,31.1c-2.1,1.4-4.1,2.7-6.1,4.1
		c-0.9-1-1.7-2-2.5-3.1c-1.7,1.2-3.4,2.3-5,3.5c0.8,1.1,1.7,2.1,2.5,3.1c-0.9,0.7-1.8,1.3-2.7,1.9c-4.5,3.2-8.9,6.8-12.8,10.8
		c-1.9,2-3.7,4.2-5.1,6.7c-0.7,1.3-1.4,2.6-1.8,4.3c-0.4,1.6-0.4,4.1,1.3,6.1c1.6,1.9,3.6,2.3,5.1,2.5c1.5,0.2,2.9,0.1,4.2-0.1
		c2.6-0.3,4.8-1,6.9-1.6c8.4-2.8,14.6-6.4,18.9-8.8c3.4-1.9,5.5-3.2,6.3-3.7c7.6,4.8,15.7,8.4,24.3,10.7c0.4,0.1,0.9,0.2,1.3,0.3
		c1.3,0.3,2.5,0.6,3.8,0.9c0.8,0.2,1.6,0.3,2.5,0.5c1.1,0.2,2.1,0.4,3.2,0.5c1.2,0.2,2.3,0.3,3.5,0.4c0.8,0.1,1.6,0.2,2.4,0.2
		c2,0.1,4.1,0.2,6.1,0.2c48.5,0,87.9-39.4,87.9-87.9S175.7,58.4,127.2,58.4z"/>
	<path id="XMLID_680_" class="st1" d="M58.6,190.6c-1.8-2.8-3.5-5.6-4.9-8.6c-1.7,1.2-3.4,2.3-5.1,3.5c1.5,3,3.2,5.9,5,8.6
		C55.2,193,56.9,191.8,58.6,190.6z"/>
	<path id="XMLID_675_" class="st1" d="M141.8,144.8c0,0-8.7,4.2-21.7,10.9c-12.9,6.7-30,16-46.5,26.3c-4.1,2.5-8.2,5.2-12.2,7.8
		c-3.9,2.7-7.8,5.3-11.4,8c-1.8,1.3-3.6,2.6-5.3,4c-1.7,1.3-3.3,2.7-4.8,4c-3,2.7-5.7,5.4-7.6,8c-0.9,1.3-1.6,2.6-1.8,3.5
		c-0.1,0.4,0,0.6,0,0.5c0,0-0.1,0,0.2,0.2c1.2,0.6,4,0.6,5.7,0.3c1.9-0.2,3.5-0.6,4.5-0.9c1-0.3,1.6-0.4,1.6-0.4l1.7,5.9
		c0,0-0.6,0.2-1.8,0.5c-1.2,0.3-2.9,0.7-5.2,1c-1.2,0.1-2.5,0.3-4,0.2c-1.5-0.1-3.2-0.1-5.4-1.2c-1-0.5-2.3-1.6-2.9-3
		c-0.7-1.5-0.7-3-0.4-4.2c0.5-2.4,1.6-4.2,2.8-5.9c2.4-3.3,5.3-6.2,8.6-9.1c1.6-1.4,3.3-2.8,5.1-4.3c1.7-1.4,3.6-2.7,5.4-4.1
		c3.7-2.8,7.6-5.5,11.6-8.2c4-2.6,8.1-5.4,12.3-7.9c33.3-20.7,68.7-37.5,68.7-37.5L141.8,144.8z"/>
	<path id="XMLID_672_" class="st1" d="M131.6,133.2c0,0-8.7,4.2-21.7,10.9c-12.9,6.7-30,16-46.5,26.3c-4.1,2.5-8.2,5.2-12.2,7.8
		c-3.9,2.7-7.8,5.3-11.4,8c-1.8,1.3-3.6,2.6-5.3,4c-1.7,1.3-3.3,2.7-4.8,4c-3,2.7-5.7,5.4-7.6,8c-0.9,1.3-1.6,2.6-1.8,3.5
		c-0.1,0.4,0,0.6,0,0.5c0,0-0.1,0,0.2,0.2c1.2,0.6,3.9,0.6,5.7,0.3c1.9-0.2,3.5-0.6,4.5-0.9c1-0.3,1.6-0.4,1.6-0.4l1.7,5.9
		c0,0-0.6,0.2-1.8,0.5c-1.2,0.3-2.9,0.7-5.2,1c-1.2,0.1-2.5,0.3-4,0.2c-1.5-0.1-3.2-0.1-5.4-1.2c-1-0.5-2.3-1.6-2.9-3
		c-0.7-1.5-0.7-3-0.4-4.2c0.5-2.4,1.6-4.2,2.8-5.9c2.4-3.3,5.3-6.2,8.6-9.1c1.6-1.4,3.3-2.8,5.1-4.3c1.7-1.4,3.6-2.7,5.4-4.1
		c3.7-2.8,7.6-5.4,11.6-8.2c4-2.6,8.1-5.4,12.3-7.9c33.3-20.7,68.7-37.5,68.7-37.5L131.6,133.2z"/>
	<g id="XMLID_743_">
		<path id="XMLID_744_" class="st1" d="M62,253.2c-0.9,0-1.7,0.5-2,1.3l-4.1,9l-4.1-8.9c-0.4-0.8-1.1-1.3-2-1.3
			c-1.2,0-2.2,0.9-2.2,2c0,0.4,0.1,0.7,0.2,0.9l5.8,12.2c-1.4,3.1-2,4-4.3,4c-1.2,0-2.1,0.9-2.1,2s0.9,2,2.1,2
			c3.6,0,5.9-1.6,7.6-5.3l7.1-15c0-0.1,0.2-0.4,0.2-0.8C64.2,254.1,63.2,253.2,62,253.2z"/>
		<path id="XMLID_747_" class="st1" d="M73.8,253.1c-4.1,0-6,1.8-6.8,3c-0.2,0.2-0.4,0.6-0.4,1.1c0,1.1,0.9,1.9,2.1,1.9
			c0.6,0,1.1-0.2,1.7-0.7c1-1,1.9-1.3,3.4-1.3c0.9,0,3.1,0.2,3.2,2.3h-4c-4.5,0-7.3,2.1-7.3,5.5c0,3.4,2.8,5.6,7.2,5.6
			c1.7,0,3.2-0.4,4.4-1.2c0.4,0.6,1.1,1,1.9,1c1.2,0,2.1-0.9,2.1-2v-8.7C81.3,255.5,78.4,253.1,73.8,253.1z M77,263.5
			c0,2.1-2,3-3.9,3c-2,0-3.1-0.6-3.1-1.7c0-1.4,1.6-1.7,2.9-1.7h4V263.5z"/>
		<path id="XMLID_748_" class="st1" d="M96.5,266h-6.1l7.6-9.2c0.3-0.4,0.5-0.8,0.5-1.3c0-1.1-0.9-2-2.1-2h-9.9
			c-1.2,0-2.1,0.9-2.1,2s0.9,2,2.1,2H92l-7.6,9.2c-0.3,0.4-0.5,0.8-0.5,1.3c0,1.1,0.9,2,2.1,2h10.5c1.2,0,2.1-0.9,2.1-2
			C98.6,266.9,97.7,266,96.5,266z"/>
		<path id="XMLID_749_" class="st1" d="M114.4,253.2c-0.9,0-1.7,0.5-2,1.3l-4.1,9l-4.1-8.9c-0.4-0.8-1.1-1.3-2-1.3
			c-1.2,0-2.2,0.9-2.2,2c0,0.4,0.1,0.7,0.2,0.9l6.1,12.9c0.4,0.7,1.1,1.2,2,1.2c0.9,0,1.6-0.4,2-1.2l6.2-13c0-0.1,0.2-0.4,0.2-0.8
			C116.5,254.1,115.6,253.2,114.4,253.2z"/>
		<path id="XMLID_750_" class="st1" d="M133.3,253.2c-0.9,0-1.7,0.5-2,1.3l-4.1,9l-4.1-8.9c-0.4-0.8-1.1-1.3-2-1.3
			c-1.2,0-2.2,0.9-2.2,2c0,0.4,0.1,0.7,0.2,0.9l5.8,12.2c-1.4,3.1-2,4-4.3,4c-1.2,0-2.1,0.9-2.1,2s0.9,2,2.1,2
			c3.6,0,5.9-1.6,7.6-5.3l7.1-15c0-0.1,0.2-0.4,0.2-0.8C135.5,254.1,134.5,253.2,133.3,253.2z"/>
		<path id="XMLID_753_" class="st1" d="M145.1,253.1c-4.1,0-6,1.8-6.8,3c-0.2,0.2-0.4,0.6-0.4,1.1c0,1.1,0.9,1.9,2.1,1.9
			c0.6,0,1.1-0.2,1.7-0.7c1-1,1.9-1.3,3.4-1.3c0.9,0,3.1,0.2,3.2,2.3h-4c-4.5,0-7.3,2.1-7.3,5.5c0,3.4,2.8,5.6,7.2,5.6
			c1.7,0,3.2-0.4,4.4-1.2c0.4,0.6,1.1,1,1.9,1c1.2,0,2.1-0.9,2.1-2v-8.7C152.6,255.5,149.8,253.1,145.1,253.1z M148.4,263.5
			c0,2.1-2,3-3.9,3c-2,0-3.1-0.6-3.1-1.7c0-1.4,1.6-1.7,2.9-1.7h4V263.5z"/>
		<path id="XMLID_754_" class="st1" d="M167.8,266h-6.1l7.6-9.2c0.3-0.4,0.5-0.8,0.5-1.3c0-1.1-0.9-2-2.1-2h-9.9
			c-1.2,0-2.1,0.9-2.1,2s0.9,2,2.1,2h5.6l-7.6,9.2c-0.3,0.4-0.5,0.8-0.5,1.3c0,1.1,0.9,2,2.1,2h10.5c1.2,0,2.1-0.9,2.1-2
			C170,266.9,169,266,167.8,266z"/>
		<path id="XMLID_757_" class="st1" d="M186.2,245.3c-1.2,0-2.2,0.9-2.2,2v6.7c-1-0.6-2.3-1-3.9-1c-5.4,0-8.2,3-8.2,8.7
			c0,5.6,3,8.7,8.4,8.7c5,0,8.1-2.8,8.1-7.3v-15.8C188.4,246.2,187.4,245.3,186.2,245.3z M184,259v4.1c0,2.8-2,3.4-3.7,3.4
			c-1.9,0-4-0.5-4-4.8c0-4.3,2.3-4.8,4-4.8C182.5,257,183.7,258.5,184,259z"/>
		<path id="XMLID_760_" class="st1" d="M199.8,253.1c-4.1,0-6,1.8-6.8,3c-0.2,0.2-0.4,0.6-0.4,1.1c0,1.1,0.9,1.9,2.1,1.9
			c0.6,0,1.1-0.2,1.7-0.7c1-1,1.9-1.3,3.4-1.3c0.9,0,3.1,0.2,3.2,2.3h-4c-4.5,0-7.3,2.1-7.3,5.5c0,3.4,2.8,5.6,7.2,5.6
			c1.7,0,3.2-0.4,4.4-1.2c0.4,0.6,1.1,1,1.9,1c1.2,0,2.1-0.9,2.1-2v-8.7C207.3,255.5,204.4,253.1,199.8,253.1z M203,263.5
			c0,2.1-2,3-3.9,3c-2,0-3.1-0.6-3.1-1.7c0-1.4,1.6-1.7,2.9-1.7h4V263.5z"/>
	</g>
	<path id="XMLID_666_" class="st2" d="M210.6,116.5c-0.3-0.6-0.6-1.1-0.9-1.7c-0.8-1.5-2.7-2-4.2-1.1c-1.5,0.8-2,2.7-1.1,4.2
		c12.8,22.3,8.6,71.8-1.3,84.8c-2.3,3.1-3.9,2.7-4.5,2.6c-3.6-0.9-4.5-3.2-6-8c-1.3-4.1-3-9.2-7.8-13.5c3.9-3,7.4-5.2,10.3-5.8
		c1.7-0.4,2.7-2,2.4-3.6c-0.4-1.7-2-2.7-3.6-2.4c-8.8,1.9-19.4,12.3-30.7,23.2c-12.8,12.4-27.3,26.5-35.1,23.2
		c-3.2-1.4-1.7-6.1,2.6-16.5c4.6-11.4,10.9-26.9,6.1-42.3c-4.3-13.6-21.2-15.6-34.8-17.2c-8.8-1-17.9-2.1-18.8-5.9
		c0-0.1-1.2-7.6,44.9-23.8c10.6-3.7,6.6-19.3,2.6-34.5c-2.8-10.7-5.9-22.9-2.9-27.6c0.7-1.1,1.7-1.7,3.2-2
		c15.9-3.1,50.6,27.3,59.5,48.5c0.7,1.6,2.5,2.3,4,1.6c1.6-0.7,2.3-2.5,1.6-4c-0.2-0.4-0.3-0.7-0.5-1.1c13.8-2.1,27.4-1,30.8,1.5
		c0.1,1.3-3.4,5.4-5.8,8.1C217.2,106.9,213.3,111.4,210.6,116.5z"/>
	<path id="XMLID_663_" class="st2" d="M215.9,114.7c-0.3-0.6-0.6-1.1-0.9-1.7c-0.8-1.5-2.7-2-4.2-1.1c-1.5,0.8-2,2.7-1.1,4.2
		c12.8,22.3,8.6,71.8-1.3,84.8c-2.3,3.1-3.9,2.7-4.5,2.6c-3.6-0.9-4.5-3.2-6-8c-1.3-4.1-3-9.2-7.8-13.5c3.9-3,7.4-5.2,10.3-5.8
		c1.7-0.4,2.7-2,2.4-3.6c-0.4-1.7-2-2.7-3.6-2.4c-8.8,1.9-19.4,12.3-30.7,23.2c-12.8,12.4-27.3,26.5-35.1,23.2
		c-3.2-1.4-1.7-6.1,2.6-16.5c4.6-11.4,10.9-26.9,6.1-42.3c-4.3-13.6-21.2-15.6-34.8-17.2c-8.8-1-17.9-2.1-18.8-5.9
		c0-0.1-1.2-7.6,44.9-23.8c10.6-3.7,6.6-19.3,2.6-34.5c-2.8-10.7-5.9-22.9-2.9-27.6c0.7-1.1,1.7-1.7,3.2-2
		c15.9-3.1,50.6,27.3,59.5,48.5c0.7,1.6,2.5,2.3,4,1.6c1.6-0.7,2.3-2.5,1.6-4c-0.2-0.4-0.3-0.7-0.5-1.1c13.8-2.1,27.4-1,30.8,1.5
		c0.1,1.3-3.4,5.4-5.8,8.1C222.5,105.1,218.6,109.6,215.9,114.7z"/>
	<path id="XMLID_707_" class="st1" d="M175.9,104.4c-0.4-0.4-1-0.6-1.5-0.5c-0.6,0.1-1.1,0.4-1.3,0.9c-2.9,4.9-9.1,3.3-9.3,3.3
		c-0.8-0.2-1.6,0.1-2,0.8c-0.4,0.7-0.4,1.5,0,2.2c3.5,4.8,6.5,7.1,9.3,7.1c0.3,0,0.6,0,0.8-0.1c2.2-0.4,3.8-2.2,4.7-5.1
		C177.4,110.4,177.7,106,175.9,104.4z"/>

		<ellipse id="XMLID_661_" transform="matrix(0.9298 -0.3681 0.3681 0.9298 -30.5195 64.1351)" class="st3" cx="152.8" cy="112.1" rx="4.6" ry="2.9"/>
	<g id="XMLID_660_">
		<path id="XMLID_701_" class="st1" d="M169.6,98.5c-0.8,0-1.5-0.5-1.8-1.3c-1.6-4.9,1.2-9,4.6-10.3c3.1-1.2,7.1-0.2,9.3,4.5
			c0.4,0.9,0,2-0.9,2.5c-0.9,0.4-2,0-2.5-0.9c-1-2.3-2.7-3.2-4.5-2.5c-1.8,0.7-3.2,2.9-2.4,5.6c0.3,1-0.2,2-1.2,2.3
			C170,98.5,169.8,98.5,169.6,98.5z"/>
	</g>
	<g id="XMLID_659_">
		<path id="XMLID_700_" class="st1" d="M146.8,104.9c-0.8,0-1.6-0.6-1.8-1.4c-1.2-5,1.8-8.9,5.3-9.9c3.2-0.9,7.1,0.3,8.9,5.1
			c0.4,1-0.1,2-1.1,2.4c-1,0.4-2-0.1-2.4-1.1c-0.9-2.3-2.5-3.4-4.3-2.8c-1.8,0.6-3.4,2.7-2.8,5.5c0.2,1-0.4,2-1.4,2.3
			C147,104.9,146.9,104.9,146.8,104.9z"/>
	</g>

		<ellipse id="XMLID_658_" transform="matrix(0.9298 -0.3681 0.3681 0.9298 -24.4747 74.1781)" class="st3" cx="182.2" cy="101.2" rx="4.6" ry="2.9"/>
	<g id="XMLID_645_">
		<g id="XMLID_109_">
			<g id="XMLID_112_">
				<path id="XMLID_113_" class="st4" d="M198.6,194.3c-1.5-4.8-3.5-10.6-9.1-15.6c0.7-0.5,1.3-1,2-1.5c-0.7-0.2-2.6,0.8-3.3,0.7
					c-1.9,1.1-3.8,2.5-5.9,4.1c5.6,5,7.5,10.8,9.1,15.6c1.8,5.5,2.8,8.2,6.9,9.3c0.6,0.2,3.4-0.6,5.9-3.7
					C201.2,201.8,200.2,199.1,198.6,194.3z"/>
			</g>
			<g id="XMLID_110_">
				<path id="XMLID_111_" class="st4" d="M134.7,216.3c-3.2-1.4-1.7-6.1,2.6-16.5c4.6-11.4,10.9-26.9,6.1-42.3
					c-4.3-13.7-22.4-16.5-36-18c-8.8-1-17.9-2.1-18.8-5.9c0-0.1-1.1-6.9,45-23c10.6-3.7,6.6-19.3,2.6-34.5
					c-2.8-10.7-5.7-23.9-2.7-28.7c0.1-0.1-1.1,0.2-1.1,0.1c-0.8,0-1.6,0-2.4,0.1c-1.5,0.3-2.5,0.9-3.2,2c-3,4.8-0.1,18,2.7,28.7
					c3.9,15.1,8,30.7-2.6,34.5C80.8,129,82,136.5,82,136.6c0.9,3.9,10,4.9,18.8,5.9c13.6,1.6,30.4,3.5,34.8,17.2
					c4.9,15.3-1.4,30.9-6.1,42.3c-4.2,10.4-5.8,15.2-2.6,16.5c2.5,1.1,8.1,0,11.7-1.9C137.2,216.9,135.9,216.8,134.7,216.3z"/>
			</g>
		</g>
	</g>
	<g id="XMLID_644_">
		<path id="XMLID_699_" class="st5" d="M168.6,77.7c-0.5,0-1-0.2-1.4-0.6c-4.5-5.1-12.2-10.8-12.3-10.9c-0.8-0.6-1-1.8-0.4-2.6
			c0.6-0.8,1.8-1,2.6-0.4c0.3,0.2,8.2,5.9,12.9,11.4c0.7,0.8,0.6,2-0.2,2.6C169.5,77.6,169.1,77.7,168.6,77.7z"/>
	</g>
	<g id="XMLID_643_">
		<path id="XMLID_698_" class="st5" d="M150.7,63c-0.3,0-0.7-0.1-1-0.3l-4.4-2.8c-0.9-0.6-1.1-1.7-0.6-2.6c0.6-0.9,1.7-1.1,2.6-0.6
			l4.4,2.8c0.9,0.6,1.1,1.7,0.6,2.6C152,62.7,151.3,63,150.7,63z"/>
	</g>
	<path id="XMLID_642_" class="st5" d="M103.1,81.8L103.1,81.8c-1,0-1.9-0.8-1.9-1.9l0,0c0-0.7-0.4-1.4-1.1-1.7
		c-1.2-0.4-2.2,0.5-2.2,1.6v0.1c0,1-0.8,1.9-1.9,1.9l0,0c-0.7,0-1.4,0.4-1.7,1.1c-0.4,1.2,0.5,2.2,1.6,2.2H96c1,0,1.9,0.8,1.9,1.9
		l0,0c0,0.7,0.4,1.4,1.1,1.7c1.2,0.4,2.2-0.5,2.2-1.6V87c0-1,0.8-1.9,1.9-1.9h0.1c1.1,0,2-1.1,1.6-2.2
		C104.6,82.2,103.9,81.8,103.1,81.8z"/>
	<g id="XMLID_636_">
		<path id="XMLID_670_" class="st6" d="M70,96c-1.1,0-2.2-0.4-3.1-1c-0.9,0.7-1.9,1-3,1c-1.9,0-3.6-1.1-4.5-2.8
			c-0.9-1.7-0.7-3.7,0.5-5.3c-0.8-1.1-1.2-2.5-1-3.8c0.2-1.6,1.2-3,2.7-3.7c0.7-0.4,1.5-0.5,2.2-0.5c1.1,0,2.2,0.4,3.1,1
			c0.9-0.7,2-1,3.1-1c0.8,0,1.5,0.2,2.2,0.5c1.5,0.8,2.5,2.1,2.7,3.7c0.2,1.3-0.1,2.7-0.9,3.8c0.8,1.1,1.2,2.5,0.9,3.8
			c-0.3,1.6-1.2,3-2.7,3.7C71.6,95.8,70.8,96,70,96L70,96z"/>
		<path id="XMLID_490_" class="st1" d="M70,82.9c0.3,0,0.6,0.1,0.8,0.2c1.3,0.7,1.4,2.2,0.5,3.2l-0.1,0.1c-0.9,0.9-0.9,2.3,0,3.1
			l0.1,0.1c0.9,0.9,0.7,2.5-0.5,3.2c-0.3,0.1-0.5,0.2-0.8,0.2c-0.5,0-1.1-0.2-1.5-0.6c-0.4-0.4-1-0.7-1.6-0.7
			c-0.6,0-1.1,0.2-1.6,0.7l-0.1,0.1c-0.4,0.4-0.9,0.6-1.4,0.6c-0.7,0-1.4-0.4-1.8-1.1c-0.4-0.8-0.2-1.7,0.4-2.3
			c0.9-0.9,0.9-2.3,0-3.1l-0.1-0.1c-0.9-0.9-0.7-2.5,0.5-3.2c0.3-0.1,0.5-0.2,0.8-0.2c0.5,0,1.1,0.2,1.5,0.6c0.4,0.4,1,0.7,1.6,0.7
			c0.6,0,1.1-0.2,1.6-0.7C68.9,83.2,69.5,82.9,70,82.9 M70,76.8c-1.1,0-2.1,0.2-3.1,0.6c-1-0.4-2-0.6-3.1-0.6
			c-1.3,0-2.5,0.3-3.6,0.9c-2.3,1.2-3.9,3.4-4.3,6c-0.2,1.5,0,2.9,0.5,4.3c-0.9,2.1-0.8,4.6,0.3,6.7c1.4,2.7,4.2,4.4,7.2,4.4
			c1.1,0,2.1-0.2,3-0.6c1,0.4,2,0.6,3,0.6c1.3,0,2.5-0.3,3.6-0.9c2.3-1.2,3.9-3.4,4.3-6c0.2-1.5,0-2.9-0.5-4.3
			c0.5-1.3,0.7-2.8,0.5-4.3c-0.4-2.5-2-4.8-4.3-6C72.6,77.1,71.3,76.8,70,76.8L70,76.8z"/>
	</g>
	<g id="XMLID_630_">
		<path id="XMLID_640_" class="st5" d="M174.3,226.4c-1.1,0-2.2-0.4-3.1-1c-0.9,0.7-1.9,1-3,1c-1.9,0-3.6-1.1-4.5-2.8
			c-0.9-1.7-0.7-3.7,0.5-5.3c-0.8-1.1-1.2-2.5-1-3.8c0.2-1.6,1.2-3,2.7-3.7c0.7-0.4,1.5-0.5,2.2-0.5c1.1,0,2.2,0.4,3.1,1
			c0.9-0.7,2-1,3.1-1c0.8,0,1.5,0.2,2.2,0.5c1.5,0.8,2.5,2.1,2.7,3.7c0.2,1.3-0.1,2.7-0.9,3.8c0.8,1.1,1.2,2.5,0.9,3.8
			c-0.3,1.6-1.2,3-2.7,3.7C175.8,226.2,175,226.4,174.3,226.4L174.3,226.4z"/>
		<path id="XMLID_637_" class="st1" d="M174.3,213.4c0.3,0,0.6,0.1,0.8,0.2c1.3,0.7,1.4,2.2,0.5,3.2l-0.1,0.1
			c-0.9,0.9-0.9,2.3,0,3.1l0.1,0.1c0.9,0.9,0.7,2.5-0.5,3.2c-0.3,0.1-0.5,0.2-0.8,0.2c-0.5,0-1.1-0.2-1.5-0.6
			c-0.4-0.4-1-0.7-1.6-0.7c-0.6,0-1.1,0.2-1.6,0.7l-0.1,0.1c-0.4,0.4-0.9,0.6-1.4,0.6c-0.7,0-1.4-0.4-1.8-1.1
			c-0.4-0.8-0.2-1.7,0.4-2.3c0.9-0.9,0.9-2.3,0-3.1l-0.1-0.1c-0.9-0.9-0.7-2.5,0.5-3.2c0.3-0.1,0.5-0.2,0.8-0.2
			c0.5,0,1.1,0.2,1.5,0.6c0.4,0.4,1,0.7,1.6,0.7c0.6,0,1.1-0.2,1.6-0.7C173.2,213.6,173.7,213.4,174.3,213.4 M174.3,207.2
			c-1.1,0-2.1,0.2-3.1,0.6c-1-0.4-2-0.6-3.1-0.6c-1.3,0-2.5,0.3-3.6,0.9c-2.3,1.2-3.9,3.4-4.3,6c-0.2,1.5,0,2.9,0.5,4.3
			c-0.9,2.1-0.8,4.6,0.3,6.7c1.4,2.7,4.2,4.4,7.2,4.4c1.1,0,2.1-0.2,3-0.6c1,0.4,2,0.6,3,0.6c1.3,0,2.5-0.3,3.6-0.9
			c2.3-1.2,3.9-3.4,4.3-6c0.2-1.5,0-2.9-0.5-4.3c0.5-1.3,0.7-2.8,0.5-4.3c-0.4-2.5-2-4.8-4.3-6C176.8,207.5,175.5,207.2,174.3,207.2
			L174.3,207.2z"/>
	</g>
	<path id="XMLID_627_" class="st6" d="M59.2,138.2L59.2,138.2c-0.4,0.4-1,0.4-1.4,0l0,0c-0.3-0.3-0.7-0.4-1-0.2
		c-0.6,0.3-0.6,1-0.2,1.4l0,0c0.4,0.4,0.4,1,0,1.4l0,0c-0.3,0.3-0.4,0.7-0.2,1c0.3,0.6,1,0.6,1.4,0.2l0,0c0.4-0.4,1-0.4,1.4,0l0,0
		c0.3,0.3,0.7,0.4,1,0.2c0.6-0.3,0.6-1,0.2-1.4l0,0c-0.4-0.4-0.4-1,0-1.4l0,0c0.4-0.4,0.3-1.1-0.2-1.4
		C59.9,137.8,59.5,137.9,59.2,138.2z"/>
	<path id="XMLID_624_" class="st2" d="M102.3,210.8L102.3,210.8c-0.4,0.4-1,0.4-1.4,0l0,0c-0.3-0.3-0.7-0.4-1-0.2
		c-0.6,0.3-0.6,1-0.2,1.4l0,0c0.4,0.4,0.4,1,0,1.4l0,0c-0.3,0.3-0.4,0.7-0.2,1c0.3,0.6,1,0.6,1.4,0.2l0,0c0.4-0.4,1-0.4,1.4,0l0,0
		c0.3,0.3,0.7,0.4,1,0.2c0.6-0.3,0.6-1,0.2-1.4l0,0c-0.4-0.4-0.4-1,0-1.4l0,0c0.4-0.4,0.3-1.1-0.2-1.4
		C103,210.4,102.6,210.5,102.3,210.8z"/>
	<path id="XMLID_621_" class="st2" d="M117,99.6L117,99.6c-0.4,0.4-1,0.4-1.4,0v0c-0.3-0.3-0.7-0.4-1-0.2c-0.6,0.3-0.6,1-0.2,1.4
		l0,0c0.4,0.4,0.4,1,0,1.4l0,0c-0.3,0.3-0.4,0.7-0.2,1c0.3,0.6,1,0.6,1.4,0.2l0,0c0.4-0.4,1-0.4,1.4,0h0c0.3,0.3,0.7,0.4,1,0.2
		c0.6-0.3,0.6-1,0.2-1.4l0,0c-0.4-0.4-0.4-1,0-1.4l0,0c0.4-0.4,0.3-1.1-0.2-1.4C117.7,99.2,117.3,99.3,117,99.6z"/>
	<path id="XMLID_620_" class="st3" d="M80.1,112.8L80.1,112.8c-0.8,0-1.5-0.7-1.5-1.5l0,0c0-0.6-0.3-1.1-0.9-1.3
		c-0.9-0.3-1.8,0.4-1.8,1.3v0.1c0,0.8-0.7,1.5-1.5,1.5l0,0c-0.6,0-1.1,0.3-1.3,0.9c-0.3,0.9,0.4,1.8,1.3,1.8h0.1
		c0.8,0,1.5,0.7,1.5,1.5l0,0c0,0.6,0.3,1.1,0.9,1.3c0.9,0.3,1.8-0.4,1.8-1.3v-0.1c0-0.8,0.7-1.5,1.5-1.5h0.1c0.9,0,1.5-0.8,1.3-1.8
		C81.3,113.1,80.7,112.8,80.1,112.8z"/>
	<g id="XMLID_611_">
		<path id="XMLID_79_" class="st6" d="M94.5,36.9L94.5,36.9c-1.3,1.3-3.4,1.3-4.8,0l0,0c-0.9-0.9-2.3-1.3-3.5-0.7
			c-1.9,1-2.2,3.4-0.8,4.8l0.1,0.1c1.3,1.3,1.3,3.4,0,4.8l0,0c-0.9,0.9-1.3,2.3-0.7,3.5c1,1.9,3.4,2.2,4.8,0.8l0.1-0.1
			c1.3-1.3,3.4-1.3,4.8,0l0,0c0.9,0.9,2.3,1.3,3.5,0.7c1.9-1,2.2-3.4,0.8-4.8l-0.1-0.1c-1.3-1.3-1.3-3.4,0-4.8l0.1-0.1
			c1.4-1.4,1.1-3.8-0.8-4.8C96.9,35.6,95.5,35.9,94.5,36.9z"/>
	</g>
	<path id="XMLID_606_" class="st2" d="M165.7,37.1L165.7,37.1c-0.7,0.7-1.9,0.7-2.7,0h0c-0.5-0.5-1.3-0.7-2-0.4
		c-1.1,0.6-1.2,1.9-0.4,2.7l0,0c0.7,0.7,0.7,1.9,0,2.7l0,0c-0.5,0.5-0.7,1.3-0.4,2c0.6,1.1,1.9,1.2,2.7,0.4l0.1,0
		c0.7-0.7,1.9-0.7,2.7,0l0,0c0.5,0.5,1.3,0.7,2,0.4c1.1-0.6,1.2-1.9,0.4-2.7l0,0c-0.7-0.7-0.7-1.9,0-2.7l0,0
		c0.8-0.8,0.6-2.1-0.4-2.7C167.1,36.4,166.3,36.6,165.7,37.1z"/>
	<path id="XMLID_605_" class="st3" d="M137.8,17.7L137.8,17.7c-1.6,0-2.9-1.3-2.9-2.9l0,0c0-1.1-0.7-2.2-1.7-2.6
		c-1.8-0.6-3.4,0.7-3.4,2.4v0.1c0,1.6-1.3,2.9-2.9,2.9l0,0c-1.1,0-2.2,0.7-2.6,1.7c-0.6,1.8,0.7,3.4,2.4,3.4h0.1
		c1.6,0,2.9,1.3,2.9,2.9l0,0c0,1.1,0.7,2.2,1.7,2.6c1.8,0.6,3.4-0.7,3.4-2.4v-0.1c0-1.6,1.3-2.9,2.9-2.9h0.1c1.7,0,3-1.6,2.4-3.4
		C140,18.4,138.9,17.7,137.8,17.7z"/>
	<path id="XMLID_703_" class="st1" d="M232.4,94.5c-0.1-1.2-0.6-2.8-2.4-4.2c-5.9-4.7-23.4-4.9-37.5-2.4
		c-12.8-21.3-44.5-48.9-62.8-45.3c-3.2,0.6-5.6,2.2-7.2,4.8c-4.4,7-1.2,19.4,2.2,32.5c3.1,11.8,6.6,25.3,1.3,27.1
		c-45.9,16.1-50.2,25-48.8,31c1.9,8.1,12.7,9.3,24.1,10.7c12.4,1.4,26.5,3.1,29.6,13c4.2,13.2-1.4,27-5.9,38.1
		c-4.3,10.6-8.4,20.6,0.7,24.5c1.6,0.7,3.2,1,4.9,1c10.7,0,23.4-12.4,36.8-25.4c4.2-4.1,8.5-8.3,12.6-11.9c4.1,3.3,5.5,7.4,6.8,11.4
		c1.6,4.8,3.3,10.3,10.3,12.1c0.7,0.2,1.4,0.3,2.2,0.3c2.5,0,5.6-1.1,8.6-5.1c10.5-13.7,14.1-56,5.9-81.7c1.7-6.5,7-12.6,11.2-17.5
		C229.4,102.2,232.8,98.3,232.4,94.5z M210.6,116.5c-0.3-0.6-0.6-1.1-0.9-1.7c-0.8-1.5-2.7-2-4.2-1.1c-1.5,0.8-2,2.7-1.1,4.2
		c12.8,22.3,8.6,71.8-1.3,84.8c-2.3,3.1-3.9,2.7-4.5,2.6c-3.6-0.9-4.5-3.2-6-8c-1.3-4.1-3-9.2-7.8-13.5c3.9-3,7.4-5.2,10.3-5.8
		c1.7-0.4,2.7-2,2.4-3.6c-0.4-1.7-2-2.7-3.6-2.4c-8.8,1.9-19.4,12.3-30.7,23.2c-12.8,12.4-27.3,26.5-35.1,23.2
		c-3.2-1.4-1.7-6.1,2.6-16.5c4.6-11.4,10.9-26.9,6.1-42.3c-4.3-13.7-21.2-15.6-34.8-17.2c-8.8-1-17.9-2.1-18.8-5.9
		c0-0.1-1.2-7.6,44.9-23.8c10.6-3.7,6.6-19.3,2.6-34.5c-2.8-10.7-5.9-22.9-2.9-27.7c0.7-1.1,1.7-1.7,3.2-2
		c15.9-3.1,50.6,27.4,59.5,48.5c0.7,1.6,2.5,2.3,4,1.6c1.6-0.7,2.3-2.5,1.6-4c-0.2-0.4-0.3-0.7-0.5-1.1c13.8-2.1,27.4-1,30.8,1.5
		c0.1,1.3-3.4,5.4-5.8,8.1C217.2,106.9,213.3,111.4,210.6,116.5z"/>
</g>
</svg>
