<?xml version="1.0" encoding="utf-8"?>
<!-- Generator: Adobe Illustrator 19.0.0, SVG Export Plug-In . SVG Version: 6.00 Build 0)  -->
<svg version="1.1" id="Layer_1" xmlns="http://www.w3.org/2000/svg" xmlns:xlink="http://www.w3.org/1999/xlink" x="0px" y="0px"
	 viewBox="-222 223.3 150 150" style="enable-background:new -222 223.3 150 150;" xml:space="preserve">
<style type="text/css">
	.st0{fill:#9D9DD1;}
	.st1{fill:#7171BC;}
	.st2{fill:#FDEF45;}
	.st3{fill:#F89D6E;}
	.st4{fill:#FCC111;}
	.st5{fill:#FFFFFF;}
	.st6{fill:#29BEEF;}
</style>
<g id="XMLID_171_">
	<path id="XMLID_261_" class="st0" d="M-145,256c-24,0-43.4,19.4-43.4,43.4c0,5.7,1.1,11.2,3.2,16.3c0.4-0.3,0.9-0.6,1.3-0.9
		c2.1-1.4,4.2-2.7,6.3-4c17-10.6,35.1-19.2,35.1-19.2l1.4,2.8c0,0-4.5,2.1-11.1,5.6c-6.6,3.3-15.4,8.1-23.8,13.3
		c-2.1,1.3-4.2,2.7-6.2,4c-0.6,0.4-1.2,0.8-1.7,1.2c0.8,1.5,1.6,3,2.5,4.4c1.3-0.9,2.7-1.8,4-2.7c9.7-6.3,19.7-11.9,27.4-15.9
		c7.6-4,12.8-6.5,12.8-6.5l1.4,2.8c0,0-5.1,2.4-12.7,6.4c-7.6,4-17.6,9.5-27.1,15.8c-1.3,0.9-2.6,1.8-3.9,2.7c1,1.3,2.1,2.5,3.2,3.7
		c1.6-1.2,3.3-2.3,5-3.4c9.6-6.3,19.7-11.9,27.4-15.9c7.6-4,12.8-6.5,12.8-6.5l1.4,2.8c0,0-5.1,2.4-12.7,6.4
		c-7.6,4-17.6,9.5-27.1,15.8c-1.4,0.9-2.7,1.8-4.1,2.8l0.9,1.4c7.5,6.3,17.3,10.1,27.9,10.1c24,0,43.4-19.4,43.4-43.4
		C-101.6,275.4-121,256-145,256z"/>
	<path id="XMLID_260_" class="st1" d="M-145,254.4c-24.8,0-45,20.2-45,44.9c0,6.1,1.2,11.9,3.4,17.2c0.9-0.6,1.7-1.2,2.6-1.8l0,0
		c-1.9-4.8-2.9-9.9-2.9-15.3c0.1-23.1,18.8-41.9,41.9-41.9s41.8,18.8,41.8,41.8s-18.8,41.9-41.8,41.9c-1.2,0-2.4-0.1-3.6-0.2
		c-0.3,0-0.7-0.1-1-0.1c-0.9-0.1-1.8-0.2-2.7-0.4c-0.3-0.1-0.6-0.1-0.9-0.2c-1-0.2-2-0.4-3-0.7c-0.1,0-0.3-0.1-0.4-0.1
		c-6.1-1.8-11.6-4.9-16.1-9c-0.9,0.6-1.7,1.2-2.6,1.8c1.1,1,2.3,2,3.5,2.9c-0.5,0.3-1.2,0.7-2,1.2c-2.1,1.2-5.3,2.9-9.1,4.2
		c-1,0.3-2,0.6-3,0.7c-0.5,0.1-1,0.1-1.4,0c-0.4,0-0.6-0.2-0.6-0.2s0-0.2,0-0.4c0.1-0.4,0.3-0.8,0.5-1.3c0.5-0.9,1.3-1.9,2.2-2.8
		c1.7-1.8,3.8-3.5,6.1-5.2c2.2-1.7,4.6-3.3,7-4.8c9.5-6.3,19.5-11.8,27.1-15.8c7.6-4,12.7-6.4,12.7-6.4l-1.4-2.8
		c0,0-5.2,2.5-12.8,6.5s-17.7,9.6-27.4,15.9c-1.1,0.7-2.1,1.4-3.1,2.1c-0.4-0.5-0.9-1-1.3-1.5c-0.9,0.6-1.7,1.1-2.5,1.7
		c0.4,0.5,0.8,1.1,1.3,1.6c-0.5,0.3-0.9,0.7-1.4,1c-2.3,1.6-4.6,3.5-6.5,5.5c-1,1-1.9,2.1-2.6,3.4c-0.4,0.7-0.7,1.3-0.9,2.2
		c-0.2,0.8-0.2,2.1,0.7,3.1c0.8,1,1.9,1.2,2.6,1.3c0.8,0.1,1.5,0.1,2.1,0c1.3-0.2,2.5-0.5,3.5-0.8c4.3-1.5,7.5-3.3,9.7-4.5
		c1.7-1,2.8-1.7,3.2-1.9c3.9,2.5,8.1,4.3,12.4,5.5c0.2,0.1,0.4,0.1,0.7,0.2c0.6,0.2,1.3,0.3,2,0.4c0.4,0.1,0.8,0.2,1.3,0.2
		c0.5,0.1,1.1,0.2,1.6,0.3c0.6,0.1,1.2,0.1,1.8,0.2c0.4,0,0.8,0.1,1.2,0.1c1,0.1,2.1,0.1,3.1,0.1c24.8,0,44.9-20.2,44.9-44.9
		C-100.1,274.6-120.2,254.4-145,254.4z"/>
	<path id="XMLID_259_" class="st1" d="M-180.1,322c-0.9-1.4-1.8-2.9-2.5-4.4c-0.9,0.6-1.7,1.2-2.6,1.8c0.8,1.5,1.6,3,2.6,4.4
		C-181.8,323.2-181,322.6-180.1,322z"/>
	<path id="XMLID_258_" class="st1" d="M-137.6,298.6c0,0-4.5,2.1-11.1,5.6c-6.5,3.4-15.3,8.1-23.7,13.4c-2.1,1.3-4.2,2.7-6.2,4
		c-2,1.4-4,2.7-5.8,4.1c-0.9,0.7-1.8,1.3-2.7,2c-0.8,0.7-1.7,1.4-2.5,2.1c-1.5,1.4-2.9,2.8-3.9,4.1c-0.5,0.7-0.8,1.3-0.9,1.8
		c0,0.2,0,0.3,0,0.3s0,0,0.1,0.1c0.6,0.3,2,0.3,2.9,0.2c1-0.1,1.8-0.3,2.3-0.4s0.8-0.2,0.8-0.2l0.9,3c0,0-0.3,0.1-0.9,0.2
		c-0.6,0.1-1.5,0.4-2.7,0.5c-0.6,0.1-1.3,0.1-2,0.1c-0.8,0-1.7-0.1-2.8-0.6c-0.5-0.3-1.2-0.8-1.5-1.6c-0.3-0.7-0.3-1.5-0.2-2.2
		c0.3-1.2,0.8-2.1,1.4-3c1.2-1.7,2.7-3.2,4.4-4.7c0.8-0.7,1.7-1.4,2.6-2.2c0.9-0.7,1.8-1.4,2.8-2.1c1.9-1.4,3.9-2.8,6-4.2
		c2.1-1.4,4.2-2.7,6.3-4c17-10.6,35.1-19.2,35.1-19.2L-137.6,298.6z"/>
	<path id="XMLID_257_" class="st1" d="M-142.8,292.7c0,0-4.5,2.1-11.1,5.6c-6.6,3.4-15.3,8.2-23.8,13.4c-2.1,1.3-4.2,2.7-6.2,4
		c-2,1.4-4,2.7-5.8,4.1c-0.9,0.7-1.8,1.3-2.7,2c-0.8,0.7-1.7,1.4-2.5,2.1c-1.5,1.4-2.9,2.8-3.9,4.1c-0.5,0.7-0.8,1.3-0.9,1.8
		c0,0.2,0,0.3,0,0.3s0,0,0.1,0.1c0.6,0.3,2,0.3,2.9,0.2c1-0.1,1.8-0.3,2.3-0.4c0.5-0.1,0.8-0.2,0.8-0.2l0.9,3c0,0-0.3,0.1-0.9,0.2
		c-0.6,0.1-1.5,0.4-2.7,0.5c-0.6,0.1-1.3,0.1-2,0.1c-0.8,0-1.7-0.1-2.8-0.6c-0.5-0.3-1.2-0.8-1.5-1.6c-0.3-0.7-0.3-1.5-0.2-2.2
		c0.3-1.2,0.8-2.1,1.4-3c1.2-1.7,2.7-3.2,4.4-4.7c0.8-0.7,1.7-1.4,2.6-2.2c0.9-0.7,1.8-1.4,2.8-2.1c1.9-1.4,3.9-2.8,6-4.2
		s4.2-2.7,6.3-4c17-10.6,35.1-19.2,35.1-19.2L-142.8,292.7z"/>
	<g id="XMLID_239_">
		<path id="XMLID_256_" class="st0" d="M-178.4,354c-0.5,0-0.8,0.2-1,0.6l-2.1,4.6l-2.1-4.6c-0.2-0.4-0.6-0.6-1-0.6
			c-0.6,0-1.1,0.5-1.1,1c0,0.2,0.1,0.3,0.1,0.5l3,6.2c-0.7,1.6-1,2.1-2.2,2.1c-0.6,0-1.1,0.4-1.1,1s0.5,1,1.1,1c1.8,0,3-0.8,3.9-2.7
			l3.6-7.7c0-0.1,0.1-0.2,0.1-0.4C-177.2,354.5-177.7,354-178.4,354z"/>
		<path id="XMLID_253_" class="st0" d="M-172.3,353.9c-2.1,0-3.1,0.9-3.5,1.5c-0.1,0.1-0.2,0.3-0.2,0.6c0,0.5,0.5,1,1.1,1
			c0.3,0,0.6-0.1,0.8-0.4c0.5-0.5,1-0.7,1.8-0.7c0.5,0,1.6,0.1,1.6,1.2h-2.1c-2.3,0-3.7,1.1-3.7,2.8c0,1.8,1.4,2.8,3.7,2.8
			c0.9,0,1.7-0.2,2.2-0.6c0.2,0.3,0.5,0.5,0.9,0.5c0.6,0,1.1-0.5,1.1-1v-4.5C-168.5,355.2-169.9,353.9-172.3,353.9z M-170.7,359.3
			c0,1.1-1,1.6-2,1.6s-1.6-0.3-1.6-0.9c0-0.7,0.8-0.9,1.5-0.9h2.1V359.3z"/>
		<path id="XMLID_252_" class="st0" d="M-160.7,360.5h-3.1l3.9-4.7c0.2-0.2,0.3-0.4,0.3-0.7c0-0.6-0.5-1-1.1-1h-5
			c-0.6,0-1.1,0.4-1.1,1s0.5,1,1.1,1h2.7l-3.9,4.7c-0.2,0.2-0.3,0.4-0.3,0.7c0,0.6,0.5,1,1.1,1h5.4c0.6,0,1.1-0.5,1.1-1
			S-160.1,360.5-160.7,360.5z"/>
		<path id="XMLID_251_" class="st0" d="M-151.6,354c-0.5,0-0.8,0.2-1,0.6l-2.1,4.6l-2.1-4.6c-0.2-0.4-0.6-0.6-1-0.6
			c-0.6,0-1.1,0.5-1.1,1c0,0.2,0.1,0.3,0.1,0.5l3.1,6.6c0.2,0.4,0.6,0.6,1,0.6s0.8-0.2,1-0.6l3.2-6.6c0-0.1,0.1-0.2,0.1-0.4
			C-150.5,354.5-151,354-151.6,354z"/>
		<path id="XMLID_250_" class="st0" d="M-141.9,354c-0.5,0-0.8,0.2-1,0.6l-2.1,4.7l-2.1-4.6c-0.2-0.4-0.6-0.6-1-0.6
			c-0.6,0-1.1,0.5-1.1,1c0,0.2,0.1,0.3,0.1,0.5l3,6.2c-0.7,1.6-1,2.1-2.2,2.1c-0.6,0-1.1,0.4-1.1,1s0.5,1,1.1,1c1.8,0,3-0.8,3.9-2.7
			l3.6-7.7c0-0.1,0.1-0.2,0.1-0.4C-140.8,354.5-141.3,354-141.9,354z"/>
		<path id="XMLID_247_" class="st0" d="M-135.8,353.9c-2.1,0-3.1,0.9-3.5,1.5c-0.1,0.1-0.2,0.3-0.2,0.6c0,0.5,0.5,1,1.1,1
			c0.3,0,0.6-0.1,0.8-0.4c0.5-0.5,1-0.7,1.8-0.7c0.5,0,1.6,0.1,1.6,1.2h-2.1c-2.3,0-3.7,1.1-3.7,2.8c0,1.8,1.4,2.8,3.7,2.8
			c0.9,0,1.7-0.2,2.2-0.6c0.2,0.3,0.5,0.5,0.9,0.5c0.6,0,1.1-0.5,1.1-1v-4.5C-132,355.2-133.5,353.9-135.8,353.9z M-134.2,359.3
			c0,1.1-1,1.6-2,1.6s-1.6-0.3-1.6-0.9c0-0.7,0.8-0.9,1.5-0.9h2.1V359.3z"/>
		<path id="XMLID_246_" class="st0" d="M-124.2,360.5h-3.1l3.9-4.7c0.2-0.2,0.3-0.4,0.3-0.7c0-0.6-0.5-1-1.1-1h-5
			c-0.6,0-1.1,0.4-1.1,1s0.5,1,1.1,1h2.8l-3.9,4.7c-0.2,0.2-0.3,0.4-0.3,0.7c0,0.6,0.5,1,1.1,1h5.4c0.6,0,1.1-0.5,1.1-1
			S-123.6,360.5-124.2,360.5z"/>
		<path id="XMLID_243_" class="st0" d="M-114.8,350c-0.6,0-1.1,0.5-1.1,1v3.4c-0.5-0.3-1.2-0.5-2-0.5c-2.8,0-4.2,1.5-4.2,4.4
			s1.5,4.4,4.3,4.4c2.5,0,4.1-1.4,4.1-3.7v-8.1C-113.7,350.4-114.2,350-114.8,350z M-116,357v2.1c0,1.4-1,1.7-1.9,1.7
			c-1,0-2.1-0.3-2.1-2.4c0-2.2,1.2-2.4,2.1-2.4C-116.7,355.9-116.1,356.7-116,357z"/>
		<path id="XMLID_240_" class="st0" d="M-107.9,353.9c-2.1,0-3.1,0.9-3.5,1.5c-0.1,0.1-0.2,0.3-0.2,0.6c0,0.5,0.5,1,1.1,1
			c0.3,0,0.6-0.1,0.8-0.4c0.5-0.5,1-0.7,1.8-0.7c0.5,0,1.6,0.1,1.6,1.2h-2.1c-2.3,0-3.7,1.1-3.7,2.8c0,1.8,1.4,2.8,3.7,2.8
			c0.9,0,1.7-0.2,2.2-0.6c0.2,0.3,0.5,0.5,0.9,0.5c0.6,0,1.1-0.5,1.1-1v-4.5C-104.1,355.2-105.5,353.9-107.9,353.9z M-106.2,359.3
			c0,1.1-1,1.6-2,1.6s-1.6-0.3-1.6-0.9c0-0.7,0.8-0.9,1.5-0.9h2.1V359.3z"/>
	</g>
	<path id="XMLID_236_" class="st2" d="M-102.4,284.1c-0.1-0.3-0.3-0.6-0.5-0.9c-0.4-0.8-1.4-1-2.1-0.6c-0.8,0.4-1,1.4-0.6,2.1
		c6.5,11.4,4.4,36.7-0.7,43.4c-1.2,1.6-2,1.4-2.3,1.3c-1.8-0.5-2.3-1.7-3.1-4.1c-0.7-2.1-1.5-4.7-4-6.9c2-1.5,3.8-2.6,5.3-3
		c0.8-0.2,1.4-1,1.2-1.9c-0.2-0.8-1-1.4-1.9-1.2c-4.5,1-9.9,6.3-15.7,11.9c-6.5,6.4-13.9,13.6-17.9,11.9c-1.6-0.7-0.9-3.1,1.3-8.5
		c2.4-5.8,5.6-13.8,3.1-21.6c-2.2-7-10.8-8-17.8-8.8c-4.5-0.5-9.2-1.1-9.6-3c0,0-0.6-3.9,22.9-12.2c5.4-1.9,3.4-9.9,1.3-17.6
		c-1.4-5.5-3-11.7-1.5-14.1c0.4-0.6,0.9-0.9,1.7-1c8.1-1.6,25.9,14,30.4,24.8c0.3,0.8,1.3,1.2,2.1,0.8c0.8-0.3,1.2-1.3,0.8-2.1
		c-0.1-0.2-0.2-0.4-0.3-0.6c7.1-1.1,14-0.5,15.7,0.8c0.1,0.7-1.8,2.8-3,4.1C-99,279.2-101,281.5-102.4,284.1z"/>
	<path id="XMLID_233_" class="st2" d="M-99.6,283.2c-0.1-0.3-0.3-0.6-0.5-0.9c-0.4-0.8-1.4-1-2.1-0.6c-0.8,0.4-1,1.4-0.6,2.1
		c6.5,11.4,4.4,36.7-0.7,43.4c-1.2,1.6-2,1.4-2.3,1.3c-1.8-0.5-2.3-1.7-3.1-4.1c-0.7-2.1-1.5-4.7-4-6.9c2-1.5,3.8-2.6,5.3-3
		c0.8-0.2,1.4-1,1.2-1.9c-0.2-0.8-1-1.4-1.9-1.2c-4.5,1-9.9,6.3-15.7,11.9c-6.5,6.4-13.9,13.6-17.9,11.9c-1.6-0.7-0.9-3.1,1.3-8.5
		c2.4-5.8,5.6-13.8,3.1-21.6c-2.2-7-10.8-8-17.8-8.8c-4.5-0.5-9.2-1.1-9.6-3c0,0-0.6-3.9,22.9-12.2c5.4-1.9,3.4-9.9,1.3-17.6
		c-1.4-5.5-3-11.7-1.5-14.1c0.4-0.6,0.9-0.9,1.7-1c8.1-1.6,25.9,14,30.4,24.8c0.3,0.8,1.3,1.2,2.1,0.8c0.8-0.3,1.2-1.3,0.8-2.1
		c-0.1-0.2-0.2-0.4-0.3-0.6c7.1-1.1,14-0.5,15.7,0.8c0.1,0.7-1.8,2.8-3,4.1C-96.3,278.3-98.3,280.6-99.6,283.2z"/>
	<path id="XMLID_232_" class="st1" d="M-120.1,277.9c-0.2-0.2-0.5-0.3-0.8-0.2c-0.3,0-0.5,0.2-0.7,0.5c-1.5,2.5-4.6,1.7-4.8,1.7
		c-0.4-0.1-0.8,0.1-1,0.4s-0.2,0.8,0,1.1c1.8,2.4,3.3,3.6,4.8,3.6c0.1,0,0.3,0,0.4,0c1.1-0.2,2-1.1,2.4-2.6
		C-119.4,281-119.2,278.7-120.1,277.9z"/>

		<ellipse id="XMLID_231_" transform="matrix(-0.3681 -0.9298 0.9298 -0.3681 -442.4713 262.8609)" class="st3" cx="-131.9" cy="281.8" rx="1.5" ry="2.3"/>
	<g id="XMLID_229_">
		<path id="XMLID_230_" class="st1" d="M-123.3,274.9c-0.4,0-0.8-0.3-0.9-0.7c-0.8-2.5,0.6-4.6,2.4-5.2c1.6-0.6,3.7-0.1,4.7,2.3
			c0.2,0.5,0,1-0.5,1.3c-0.5,0.2-1,0-1.3-0.5c-0.5-1.2-1.4-1.6-2.3-1.3c-0.9,0.4-1.7,1.5-1.2,2.9c0.2,0.5-0.1,1-0.6,1.2
			C-123.1,274.9-123.2,274.9-123.3,274.9z"/>
	</g>
	<g id="XMLID_227_">
		<path id="XMLID_228_" class="st1" d="M-135,278.2c-0.4,0-0.8-0.3-0.9-0.7c-0.6-2.6,0.9-4.5,2.7-5.1c1.6-0.5,3.7,0.1,4.6,2.6
			c0.2,0.5-0.1,1-0.6,1.2c-0.5,0.2-1-0.1-1.2-0.6c-0.4-1.2-1.3-1.7-2.2-1.5c-0.9,0.3-1.8,1.4-1.4,2.8c0.1,0.5-0.2,1-0.7,1.2
			C-134.9,278.2-134.9,278.2-135,278.2z"/>
	</g>

		<ellipse id="XMLID_226_" transform="matrix(-0.3681 -0.9298 0.9298 -0.3681 -416.8177 269.2961)" class="st3" cx="-116.9" cy="276.3" rx="1.5" ry="2.3"/>
	<g id="XMLID_213_">
		<g id="XMLID_306_">
			<g id="XMLID_309_">
				<path id="XMLID_310_" class="st4" d="M-108.5,323.9c-0.8-2.4-1.8-5.4-4.6-8c0.3-0.3,0.7-0.5,1-0.8c-0.4-0.1-1.3,0.4-1.7,0.4
					c-1,0.6-2,1.3-3,2.1c2.9,2.5,3.8,5.5,4.6,8c0.9,2.8,1.4,4.2,3.6,4.7c0.3,0.1,1.7-0.3,3-1.9
					C-107.2,327.7-107.7,326.4-108.5,323.9z"/>
			</g>
			<g id="XMLID_307_">
				<path id="XMLID_308_" class="st4" d="M-141.2,335.2c-1.6-0.7-0.9-3.1,1.3-8.5c2.4-5.8,5.6-13.8,3.1-21.6
					c-2.2-7-11.5-8.4-18.4-9.2c-4.5-0.5-9.2-1.1-9.6-3c0,0-0.5-3.5,23-11.8c5.4-1.9,3.4-9.9,1.3-17.6c-1.4-5.5-2.9-12.2-1.4-14.7
					c0-0.1-0.6,0.1-0.5,0.1c-0.4,0-0.8,0-1.2,0.1c-0.8,0.2-1.3,0.5-1.7,1c-1.5,2.4-0.1,9.2,1.4,14.7c2,7.7,4.1,15.7-1.3,17.6
					c-23.6,8.3-23,12.1-22.9,12.2c0.5,2,5.1,2.5,9.6,3c6.9,0.8,15.6,1.8,17.8,8.8c2.5,7.8-0.7,15.8-3.1,21.6
					c-2.2,5.3-2.9,7.8-1.3,8.5c1.3,0.5,4.2,0,6-0.9C-139.9,335.5-140.6,335.4-141.2,335.2z"/>
			</g>
		</g>
	</g>
	<g id="XMLID_211_">
		<path id="XMLID_212_" class="st5" d="M-123.8,264.3c-0.3,0-0.5-0.1-0.7-0.3c-2.3-2.6-6.3-5.5-6.3-5.5c-0.4-0.3-0.5-0.9-0.2-1.3
			s0.9-0.5,1.3-0.2c0.2,0.1,4.2,3,6.6,5.8c0.3,0.4,0.3,1-0.1,1.3C-123.4,264.2-123.6,264.3-123.8,264.3z"/>
	</g>
	<g id="XMLID_209_">
		<path id="XMLID_210_" class="st5" d="M-133,256.8c-0.2,0-0.4,0-0.5-0.1l-2.3-1.4c-0.4-0.3-0.6-0.9-0.3-1.3
			c0.3-0.5,0.9-0.6,1.3-0.3l2.3,1.4c0.4,0.3,0.6,0.9,0.3,1.3C-132.4,256.6-132.7,256.8-133,256.8z"/>
	</g>
	<path id="XMLID_208_" class="st5" d="M-157.3,266.3L-157.3,266.3c-0.5,0-1-0.4-1-1l0,0c0-0.4-0.2-0.7-0.6-0.9
		c-0.6-0.1-1.1,0.4-1.1,0.9l0,0c0,0.5-0.4,1-1,1l0,0c-0.4,0-0.7,0.2-0.9,0.6c-0.2,0.6,0.2,1.1,0.8,1.1l0,0c0.5,0,1,0.4,1,1l0,0
		c0,0.4,0.2,0.7,0.6,0.9c0.6,0.2,1.1-0.2,1.1-0.8l0,0c0-0.5,0.4-1,1-1l0,0c0.6,0,1-0.5,0.8-1.1
		C-156.6,266.6-156.9,266.3-157.3,266.3z"/>
	<g id="XMLID_203_">
		<path id="XMLID_207_" class="st6" d="M-174.2,273.6c-0.6,0-1.1-0.2-1.6-0.5c-0.5,0.3-1,0.5-1.5,0.5c-1,0-1.8-0.5-2.3-1.4
			s-0.4-1.9,0.2-2.7c-0.4-0.6-0.6-1.3-0.5-1.9c0.1-0.8,0.6-1.5,1.4-1.9c0.4-0.2,0.7-0.3,1.1-0.3c0.6,0,1.1,0.2,1.6,0.5
			c0.5-0.3,1-0.5,1.6-0.5c0.4,0,0.8,0.1,1.1,0.3c0.8,0.4,1.3,1.1,1.4,1.9c0.1,0.7-0.1,1.4-0.5,1.9c0.4,0.6,0.6,1.3,0.5,1.9
			c-0.1,0.8-0.6,1.5-1.4,1.9C-173.5,273.5-173.8,273.6-174.2,273.6L-174.2,273.6z"/>
		<path id="XMLID_204_" class="st1" d="M-174.2,266.9c0.1,0,0.3,0,0.4,0.1c0.6,0.3,0.7,1.1,0.3,1.6l0,0c-0.4,0.4-0.4,1.2,0,1.6l0,0
			c0.5,0.5,0.4,1.3-0.3,1.6c-0.1,0.1-0.3,0.1-0.4,0.1c-0.3,0-0.6-0.1-0.8-0.3c-0.2-0.2-0.5-0.3-0.8-0.3s-0.6,0.1-0.8,0.3l0,0
			c-0.2,0.2-0.5,0.3-0.7,0.3c-0.4,0-0.7-0.2-0.9-0.6s-0.1-0.9,0.2-1.2c0.4-0.4,0.4-1.2,0-1.6l0,0c-0.5-0.5-0.4-1.3,0.3-1.6
			c0.1-0.1,0.3-0.1,0.4-0.1c0.3,0,0.6,0.1,0.8,0.3c0.2,0.2,0.5,0.3,0.8,0.3s0.6-0.1,0.8-0.3C-174.8,267.1-174.5,266.9-174.2,266.9
			 M-174.2,263.8c-0.5,0-1.1,0.1-1.6,0.3c-0.5-0.2-1-0.3-1.6-0.3c-0.6,0-1.3,0.2-1.9,0.5c-1.2,0.6-2,1.8-2.2,3.1
			c-0.1,0.7,0,1.5,0.3,2.2c-0.4,1.1-0.4,2.3,0.1,3.4c0.7,1.4,2.1,2.3,3.7,2.3c0.5,0,1.1-0.1,1.6-0.3c0.5,0.2,1,0.3,1.6,0.3
			c0.6,0,1.3-0.2,1.9-0.5c1.2-0.6,2-1.8,2.2-3.1c0.1-0.7,0-1.5-0.3-2.2c0.3-0.7,0.4-1.4,0.3-2.2c-0.2-1.3-1-2.4-2.2-3.1
			C-173,264-173.6,263.8-174.2,263.8L-174.2,263.8z"/>
	</g>
	<g id="XMLID_198_">
		<path id="XMLID_202_" class="st5" d="M-120.9,340.3c-0.6,0-1.1-0.2-1.6-0.5c-0.5,0.3-1,0.5-1.5,0.5c-1,0-1.8-0.5-2.3-1.4
			s-0.3-1.9,0.2-2.7c-0.4-0.6-0.6-1.3-0.5-1.9c0.1-0.8,0.6-1.5,1.4-1.9c0.4-0.2,0.7-0.3,1.1-0.3c0.6,0,1.1,0.2,1.6,0.5
			c0.5-0.3,1-0.5,1.6-0.5c0.4,0,0.8,0.1,1.1,0.3c0.8,0.4,1.3,1.1,1.4,1.9c0.1,0.7-0.1,1.4-0.5,1.9c0.4,0.6,0.6,1.3,0.5,1.9
			c-0.1,0.8-0.6,1.5-1.4,1.9C-120.2,340.2-120.5,340.3-120.9,340.3L-120.9,340.3z"/>
		<path id="XMLID_199_" class="st1" d="M-120.9,333.6c0.1,0,0.3,0,0.4,0.1c0.6,0.3,0.7,1.1,0.3,1.6l0,0c-0.4,0.4-0.4,1.2,0,1.6l0,0
			c0.5,0.5,0.4,1.3-0.3,1.6c-0.1,0.1-0.3,0.1-0.4,0.1c-0.3,0-0.6-0.1-0.8-0.3c-0.2-0.2-0.5-0.3-0.8-0.3s-0.6,0.1-0.8,0.3l0,0
			c-0.2,0.2-0.5,0.3-0.7,0.3c-0.4,0-0.7-0.2-0.9-0.6c-0.2-0.4-0.1-0.9,0.2-1.2c0.4-0.4,0.4-1.2,0-1.6l0,0c-0.5-0.5-0.4-1.3,0.3-1.6
			c0.1-0.1,0.3-0.1,0.4-0.1c0.3,0,0.6,0.1,0.8,0.3c0.2,0.2,0.5,0.3,0.8,0.3s0.6-0.1,0.8-0.3C-121.5,333.8-121.2,333.6-120.9,333.6
			 M-120.9,330.5c-0.5,0-1.1,0.1-1.6,0.3c-0.5-0.2-1-0.3-1.6-0.3s-1.3,0.2-1.9,0.5c-1.2,0.6-2,1.8-2.2,3.1c-0.1,0.7,0,1.5,0.3,2.2
			c-0.4,1.1-0.4,2.3,0.1,3.4c0.7,1.4,2.1,2.3,3.7,2.3c0.5,0,1.1-0.1,1.6-0.3c0.5,0.2,1,0.3,1.6,0.3s1.3-0.2,1.9-0.5
			c1.2-0.6,2-1.8,2.2-3.1c0.1-0.7,0-1.5-0.3-2.2c0.3-0.7,0.4-1.4,0.3-2.2c-0.2-1.3-1-2.4-2.2-3.1
			C-119.7,330.7-120.3,330.5-120.9,330.5L-120.9,330.5z"/>
	</g>
	<path id="XMLID_195_" class="st6" d="M-179.8,295.2L-179.8,295.2c-0.2,0.2-0.5,0.2-0.7,0l0,0c-0.1-0.1-0.4-0.2-0.5-0.1
		c-0.3,0.2-0.3,0.5-0.1,0.7l0,0c0.2,0.2,0.2,0.5,0,0.7l0,0c-0.1,0.1-0.2,0.4-0.1,0.5c0.2,0.3,0.5,0.3,0.7,0.1l0,0
		c0.2-0.2,0.5-0.2,0.7,0l0,0c0.1,0.1,0.4,0.2,0.5,0.1c0.3-0.2,0.3-0.5,0.1-0.7l0,0c-0.2-0.2-0.2-0.5,0-0.7l0,0
		c0.2-0.2,0.2-0.6-0.1-0.7C-179.4,295-179.7,295-179.8,295.2z"/>
	<path id="XMLID_192_" class="st2" d="M-157.7,332.3L-157.7,332.3c-0.2,0.2-0.5,0.2-0.7,0l0,0c-0.1-0.1-0.4-0.2-0.5-0.1
		c-0.3,0.2-0.3,0.5-0.1,0.7l0,0c0.2,0.2,0.2,0.5,0,0.7l0,0c-0.1,0.1-0.2,0.4-0.1,0.5c0.2,0.3,0.5,0.3,0.7,0.1l0,0
		c0.2-0.2,0.5-0.2,0.7,0l0,0c0.1,0.1,0.4,0.2,0.5,0.1c0.3-0.2,0.3-0.5,0.1-0.7l0,0c-0.2-0.2-0.2-0.5,0-0.7l0,0
		c0.2-0.2,0.2-0.6-0.1-0.7C-157.4,332.1-157.6,332.2-157.7,332.3z"/>
	<path id="XMLID_189_" class="st2" d="M-150.2,275.5L-150.2,275.5c-0.2,0.2-0.5,0.2-0.7,0l0,0c-0.1-0.1-0.4-0.2-0.5-0.1
		c-0.3,0.2-0.3,0.5-0.1,0.7l0,0c0.2,0.2,0.2,0.5,0,0.7l0,0c-0.1,0.1-0.2,0.4-0.1,0.5c0.2,0.3,0.5,0.3,0.7,0.1l0,0
		c0.2-0.2,0.5-0.2,0.7,0l0,0c0.1,0.1,0.4,0.2,0.5,0.1c0.3-0.2,0.3-0.5,0.1-0.7l0,0c-0.2-0.2-0.2-0.5,0-0.7l0,0
		c0.2-0.2,0.2-0.6-0.1-0.7C-149.8,275.3-150.1,275.3-150.2,275.5z"/>
	<path id="XMLID_188_" class="st3" d="M-169.1,282.2L-169.1,282.2c-0.4,0-0.8-0.3-0.8-0.8l0,0c0-0.3-0.2-0.6-0.5-0.7
		c-0.5-0.1-0.9,0.2-0.9,0.6l0,0c0,0.4-0.3,0.8-0.8,0.8l0,0c-0.3,0-0.6,0.2-0.7,0.5c-0.1,0.5,0.2,0.9,0.6,0.9l0,0
		c0.4,0,0.8,0.3,0.8,0.8l0,0c0,0.3,0.2,0.6,0.5,0.7c0.5,0.1,0.9-0.2,0.9-0.6l0,0c0-0.4,0.3-0.8,0.8-0.8l0,0c0.4,0,0.8-0.4,0.6-0.9
		C-168.5,282.4-168.8,282.2-169.1,282.2z"/>
	<g id="XMLID_180_">
		<path id="XMLID_279_" class="st6" d="M-161.7,243.4L-161.7,243.4c-0.7,0.7-1.8,0.7-2.4,0l0,0c-0.5-0.5-1.2-0.6-1.8-0.3
			c-1,0.5-1.1,1.7-0.4,2.4l0,0c0.7,0.7,0.7,1.8,0,2.4l0,0c-0.5,0.5-0.6,1.2-0.3,1.8c0.5,1,1.7,1.1,2.4,0.4l0,0
			c0.7-0.7,1.8-0.7,2.4,0l0,0c0.5,0.5,1.2,0.6,1.8,0.3c1-0.5,1.1-1.7,0.4-2.4l0,0c-0.7-0.7-0.7-1.8,0-2.4l0,0
			c0.7-0.7,0.6-1.9-0.4-2.4C-160.5,242.7-161.2,242.9-161.7,243.4z"/>
	</g>
	<path id="XMLID_177_" class="st2" d="M-125.3,243.5L-125.3,243.5c-0.4,0.4-1,0.4-1.4,0l0,0c-0.3-0.3-0.7-0.4-1-0.2
		c-0.5,0.3-0.6,1-0.2,1.4l0,0c0.4,0.4,0.4,1,0,1.4l0,0c-0.3,0.3-0.4,0.7-0.2,1c0.3,0.5,1,0.6,1.4,0.2l0,0c0.4-0.4,1-0.4,1.4,0l0,0
		c0.3,0.3,0.7,0.4,1,0.2c0.5-0.3,0.6-1,0.2-1.4l0,0c-0.4-0.4-0.4-1,0-1.4l0,0c0.4-0.4,0.3-1.1-0.2-1.4
		C-124.6,243.1-125,243.2-125.3,243.5z"/>
	<path id="XMLID_175_" class="st3" d="M-139.6,233.6L-139.6,233.6c-0.8,0-1.5-0.7-1.5-1.5l0,0c0-0.6-0.3-1.1-0.9-1.3
		c-0.9-0.3-1.7,0.4-1.7,1.3v0.1c0,0.8-0.7,1.5-1.5,1.5l0,0c-0.6,0-1.1,0.3-1.3,0.9c-0.3,0.9,0.4,1.7,1.3,1.7h0.1
		c0.8,0,1.5,0.7,1.5,1.5l0,0c0,0.6,0.3,1.1,0.9,1.3c0.9,0.3,1.7-0.4,1.7-1.3v-0.1c0-0.8,0.7-1.5,1.5-1.5h0.1c0.9,0,1.5-0.8,1.3-1.7
		C-138.4,233.9-139,233.6-139.6,233.6z"/>
	<path id="XMLID_172_" class="st1" d="M-91.2,272.8c-0.1-0.6-0.3-1.4-1.2-2.2c-3-2.4-12-2.5-19.2-1.2c-6.5-10.9-22.7-25-32.1-23.2
		c-1.6,0.3-2.9,1.1-3.7,2.4c-2.3,3.6-0.6,9.9,1.1,16.6c1.6,6.1,3.4,12.9,0.7,13.9c-23.5,8.2-25.7,12.8-25,15.8
		c1,4.1,6.5,4.8,12.3,5.4c6.4,0.7,13.5,1.6,15.2,6.6c2.1,6.8-0.7,13.8-3,19.5c-2.2,5.4-4.3,10.5,0.4,12.5c0.8,0.3,1.7,0.5,2.5,0.5
		c5.5,0,12-6.3,18.8-13c2.2-2.1,4.4-4.2,6.4-6.1c2.1,1.7,2.8,3.8,3.5,5.8c0.8,2.5,1.7,5.3,5.3,6.2c0.3,0.1,0.7,0.1,1.1,0.1
		c1.3,0,2.9-0.6,4.4-2.6c5.3-7,7.2-28.6,3-41.8c0.9-3.3,3.6-6.5,5.7-9C-92.8,276.8-91,274.8-91.2,272.8z M-102.4,284.1
		c-0.1-0.3-0.3-0.6-0.5-0.9c-0.4-0.8-1.4-1-2.1-0.6c-0.8,0.4-1,1.4-0.6,2.1c6.5,11.4,4.4,36.7-0.7,43.4c-1.2,1.6-2,1.4-2.3,1.3
		c-1.8-0.5-2.3-1.7-3.1-4.1c-0.7-2.1-1.5-4.7-4-6.9c2-1.5,3.8-2.6,5.3-3c0.8-0.2,1.4-1,1.2-1.9c-0.2-0.8-1-1.4-1.9-1.2
		c-4.5,1-9.9,6.3-15.7,11.9c-6.5,6.4-13.9,13.6-17.9,11.9c-1.6-0.7-0.9-3.1,1.3-8.5c2.4-5.8,5.6-13.8,3.1-21.6
		c-2.2-7-10.8-8-17.8-8.8c-4.5-0.5-9.2-1.1-9.6-3c0,0-0.6-3.9,22.9-12.2c5.4-1.9,3.4-9.9,1.3-17.6c-1.4-5.5-3-11.7-1.5-14.1
		c0.4-0.6,0.9-0.9,1.7-1c8.2-1.6,25.9,14,30.4,24.8c0.3,0.8,1.3,1.2,2.1,0.8c0.8-0.3,1.2-1.3,0.8-2.1c-0.1-0.2-0.2-0.4-0.3-0.6
		c7.1-1.1,14-0.5,15.7,0.8c0,0.7-1.8,2.8-3,4.1C-99,279.2-101,281.5-102.4,284.1z"/>
</g>
</svg>
